<svg width="41" height="41" viewBox="0 0 41 41" fill="none" xmlns="http://www.w3.org/2000/svg">
<mask id="mask0_3_1160" style="mask-type:alpha" maskUnits="userSpaceOnUse" x="0" y="0" width="41" height="41">
<rect x="0.800049" y="0.199951" width="40" height="40" fill="#C4C4C4"/>
</mask>
<g mask="url(#mask0_3_1160)">
<path d="M26.188 29.854V37.3434C26.188 37.4994 26.2735 37.6423 26.4112 37.716C26.5464 37.7883 26.7174 37.7797 26.8447 37.6949L29.5496 35.8917C29.8808 35.671 30.312 35.671 30.6433 35.8917L33.348 37.6949C33.4753 37.7799 33.6471 37.7883 33.7814 37.716C33.9193 37.6423 34.0048 37.4995 34.0048 37.3434V29.854C32.8646 30.55 31.5266 30.9514 30.0964 30.9514C28.6664 30.9514 27.3282 30.55 26.188 29.854Z" fill="#F8AF42"/>
<path d="M37.2791 3.3999H4.32137C2.37982 3.3999 0.800293 4.97916 0.800293 6.92098V30.5827C0.800293 32.5242 2.37982 34.1039 4.32137 34.1039H24.2158V28.114C23.1814 26.821 22.5608 25.182 22.5608 23.3999C22.5608 19.2359 25.9412 15.8484 30.0961 15.8484C34.2509 15.8484 37.6311 19.2359 37.6311 23.3999C37.6311 25.182 37.0105 26.821 35.9763 28.114V34.1039H37.2791C39.2206 34.1039 40.8003 32.5242 40.8003 30.5827V6.92098C40.8003 4.97916 39.2206 3.3999 37.2791 3.3999ZM18.8224 22.2025H4.87868C4.25645 22.2025 3.75194 21.698 3.75194 21.0759C3.75194 20.4535 4.25645 19.949 4.87868 19.949H18.8224C19.4446 19.949 19.9491 20.4535 19.9491 21.0759C19.9492 21.698 19.4447 22.2025 18.8224 22.2025ZM18.8224 17.5547H4.87868C4.25645 17.5547 3.75194 17.0501 3.75194 16.4281C3.75194 15.8057 4.25645 15.3012 4.87868 15.3012H18.8224C19.4446 15.3012 19.9491 15.8057 19.9491 16.4281C19.9492 17.0501 19.4447 17.5547 18.8224 17.5547ZM18.8224 12.907H4.87868C4.25645 12.907 3.75194 12.4025 3.75194 11.7801C3.75194 11.158 4.25645 10.6535 4.87868 10.6535H18.8224C19.4446 10.6535 19.9491 11.158 19.9491 11.7801C19.9492 12.4025 19.4447 12.907 18.8224 12.907Z" fill="#364291"/>
<path d="M30.0945 17.8203C27.0269 17.8203 24.531 20.3235 24.531 23.4001C24.531 26.477 27.0268 28.9799 30.0945 28.9799C33.162 28.9799 35.6579 26.477 35.6579 23.4001C35.6579 20.3235 33.1621 17.8203 30.0945 17.8203Z" fill="#F8AF42"/>
</g>
</svg>
