<svg width="21" height="21" viewBox="0 0 21 21" fill="none" xmlns="http://www.w3.org/2000/svg">
<mask id="mask0_838_2856" style="mask-type:alpha" maskUnits="userSpaceOnUse" x="0" y="0" width="21" height="21">
<rect x="0.666992" y="0.66748" width="20" height="20" fill="#C4C4C4"/>
</mask>
<g mask="url(#mask0_838_2856)">
<path d="M19.4993 8.85254H14.3296V20.6691H19.4993V8.85254Z" fill="#4CE1C6"/>
<path d="M14.3299 4.42041H1.7749V20.6681H14.3299V4.42041Z" fill="#221FD5"/>
<path d="M14.6996 2.94385H1.40601C0.99813 2.94385 0.66748 3.2745 0.66748 3.68237C0.66748 4.09025 0.99813 4.4209 1.40601 4.4209H14.6996C15.1075 4.4209 15.4381 4.09025 15.4381 3.68237C15.4381 3.2745 15.1075 2.94385 14.6996 2.94385Z" fill="#221FD5"/>
<path d="M10.2686 15.4985H5.8374V20.6683H10.2686V15.4985Z" fill="white"/>
<path d="M4.91937 7.74316H3.80307C3.4995 7.74316 3.25342 7.98925 3.25342 8.29281V9.40912C3.25342 9.71268 3.4995 9.95876 3.80307 9.95876H4.91937C5.22293 9.95876 5.46902 9.71268 5.46902 9.40912V8.29281C5.46902 7.98925 5.22293 7.74316 4.91937 7.74316Z" fill="white"/>
<path d="M8.61175 7.74316H7.49545C7.19189 7.74316 6.9458 7.98925 6.9458 8.29281V9.40912C6.9458 9.71268 7.19189 9.95876 7.49545 9.95876H8.61175C8.91531 9.95876 9.1614 9.71268 9.1614 9.40912V8.29281C9.1614 7.98925 8.91531 7.74316 8.61175 7.74316Z" fill="white"/>
<path d="M12.3056 7.74316H11.1893C10.8857 7.74316 10.6396 7.98925 10.6396 8.29281V9.40912C10.6396 9.71268 10.8857 9.95876 11.1893 9.95876H12.3056C12.6092 9.95876 12.8552 9.71268 12.8552 9.40912V8.29281C12.8552 7.98925 12.6092 7.74316 12.3056 7.74316Z" fill="white"/>
<path d="M17.4741 10.3291H16.3578C16.0542 10.3291 15.8081 10.5752 15.8081 10.8787V11.9951C15.8081 12.2986 16.0542 12.5447 16.3578 12.5447H17.4741C17.7776 12.5447 18.0237 12.2986 18.0237 11.9951V10.8787C18.0237 10.5752 17.7776 10.3291 17.4741 10.3291Z" fill="white"/>
<path d="M17.4741 14.022H16.3578C16.0542 14.022 15.8081 14.2681 15.8081 14.5716V15.6879C15.8081 15.9915 16.0542 16.2376 16.3578 16.2376H17.4741C17.7776 16.2376 18.0237 15.9915 18.0237 15.6879V14.5716C18.0237 14.2681 17.7776 14.022 17.4741 14.022Z" fill="white"/>
<path d="M4.91937 11.436H3.80307C3.4995 11.436 3.25342 11.6821 3.25342 11.9857V13.102C3.25342 13.4055 3.4995 13.6516 3.80307 13.6516H4.91937C5.22293 13.6516 5.46902 13.4055 5.46902 13.102V11.9857C5.46902 11.6821 5.22293 11.436 4.91937 11.436Z" fill="white"/>
<path d="M8.61175 11.436H7.49545C7.19189 11.436 6.9458 11.6821 6.9458 11.9857V13.102C6.9458 13.4055 7.19189 13.6516 7.49545 13.6516H8.61175C8.91531 13.6516 9.1614 13.4055 9.1614 13.102V11.9857C9.1614 11.6821 8.91531 11.436 8.61175 11.436Z" fill="white"/>
<path d="M12.3056 11.436H11.1893C10.8857 11.436 10.6396 11.6821 10.6396 11.9857V13.102C10.6396 13.4055 10.8857 13.6516 11.1893 13.6516H12.3056C12.6092 13.6516 12.8552 13.4055 12.8552 13.102V11.9857C12.8552 11.6821 12.6092 11.436 12.3056 11.436Z" fill="white"/>
<path d="M14.3374 7.73877H20.0753C20.386 7.73877 20.6378 7.99063 20.6378 8.30131V8.30131C20.6378 8.61199 20.386 8.86385 20.0753 8.86385H14.3374V7.73877Z" fill="#4CE1C6"/>
<g filter="url(#filter0_d_838_2856)">
<circle cx="8.03754" cy="3.66596" r="1.99701" fill="white"/>
</g>
<rect x="7.71045" y="2.46777" width="0.622945" height="2.36719" rx="0.311473" fill="#ED4C4C"/>
<rect x="6.83887" y="3.9624" width="0.622945" height="2.36719" rx="0.311473" transform="rotate(-90 6.83887 3.9624)" fill="#ED4C4C"/>
</g>
<defs>
<filter id="filter0_d_838_2856" x="4.73969" y="0.628279" width="6.59581" height="6.59581" filterUnits="userSpaceOnUse" color-interpolation-filters="sRGB">
<feFlood flood-opacity="0" result="BackgroundImageFix"/>
<feColorMatrix in="SourceAlpha" type="matrix" values="0 0 0 0 0 0 0 0 0 0 0 0 0 0 0 0 0 0 127 0" result="hardAlpha"/>
<feOffset dy="0.260167"/>
<feGaussianBlur stdDeviation="0.650416"/>
<feColorMatrix type="matrix" values="0 0 0 0 0.629279 0 0 0 0 0.654556 0 0 0 0 0.720524 0 0 0 1 0"/>
<feBlend mode="normal" in2="BackgroundImageFix" result="effect1_dropShadow_838_2856"/>
<feBlend mode="normal" in="SourceGraphic" in2="effect1_dropShadow_838_2856" result="shape"/>
</filter>
</defs>
</svg>
