<svg width="21" height="21" viewBox="0 0 21 21" fill="none" xmlns="http://www.w3.org/2000/svg">
<mask id="mask0_838_2884" style="mask-type:alpha" maskUnits="userSpaceOnUse" x="0" y="0" width="21" height="21">
<rect x="0.666992" y="0.66748" width="20" height="20" fill="#C4C4C4"/>
</mask>
<g mask="url(#mask0_838_2884)">
<path d="M18.8922 16.3148C18.9004 16.2795 18.9148 16.2499 18.9148 16.2127V13.7519C18.9148 11.7678 17.2469 10.1541 15.1954 10.1541C13.1438 10.1541 11.4761 11.7678 11.4761 13.7519L11.4782 15.9061C11.4782 17.3645 10.2797 18.5517 8.80815 18.5517C7.33673 18.5517 6.13932 17.3645 6.13932 15.9061V10.9058C8.75019 10.7194 10.8196 8.75707 10.8196 6.34469V2.14304C10.8196 1.88075 10.5841 1.66748 10.2945 1.66748H8.63166C8.34203 1.66748 8.10654 1.88075 8.10654 2.14304C8.10654 2.4055 8.34203 2.61861 8.63166 2.61861H9.7692V6.34453C9.7692 8.35428 7.96337 9.99061 5.74313 9.99061C3.52238 9.99061 1.71707 8.35428 1.71707 6.34453V2.61876H2.94276C3.23239 2.61876 3.46788 2.40566 3.46788 2.1432C3.46806 1.88075 3.23274 1.66748 2.94293 1.66748H1.19212C0.902309 1.66748 0.666992 1.88075 0.666992 2.14304V6.34453C0.666992 8.67614 2.60055 10.587 5.0889 10.8819V15.9061C5.0889 17.8904 6.75676 19.503 8.80815 19.503C10.8595 19.503 12.5284 17.8904 12.5284 15.9061L12.5265 13.7519C12.5265 12.2925 13.7246 11.1053 15.1955 11.1053C16.6664 11.1053 17.8645 12.2925 17.8645 13.7519V16.2125C17.8645 16.2276 17.8706 16.235 17.8727 16.2479C16.9722 16.4115 16.2911 17.1343 16.2911 17.9963C16.2911 18.9799 17.1732 19.7799 18.2606 19.7799C19.3459 19.7799 20.23 18.9799 20.23 17.9963C20.2297 17.214 19.6676 16.5545 18.8922 16.3148ZM18.2612 18.8286C17.7556 18.8286 17.3422 18.4533 17.3422 17.9963C17.3422 17.5393 17.7556 17.1638 18.2612 17.1638C18.7669 17.1638 19.1803 17.5393 19.1803 17.9963C19.1803 18.4533 18.7671 18.8286 18.2612 18.8286Z" fill="#2320D4"/>
</g>
</svg>
